#N canvas 145 214 1027 745 10;
#X obj 467 558 s \$3-rcv;
#X obj 292 107 r \$1-setap-snd;
#X obj 30 118 r \$1-getap-snd;
#X obj 9 119 bng 15 250 50 0 empty empty empty 0 -6 0 8 -262144 -1
-1;
#X obj 57 356 s \$1-getap-rcv;
#X obj 30 334 t b a;
#X obj 30 168 symbol \$2;
#X obj 30 143 t b b;
#X obj 30 189 pack s f 16;
#X obj 641 62 r \$1-pattern-snd;
#X obj 522 16 table \$0-pattern 16;
#X obj 641 255 pack f f;
#X obj 641 275 s \$0-pattern;
#X obj 487 335 sel 0;
#X obj 514 357 b;
#X obj 139 264 tabdump2 \$0-pattern;
#X msg 139 243 dump 0 \$1;
#X obj 51 221 16;
#X msg 116 195 resize \$1;
#X obj 116 214 s \$0-pattern;
#X obj 641 233 moses 16;
#X obj 724 251 moses 16;
#X obj 292 127 route \$2 _all_;
#X obj 487 312 t f f;
#X obj 527 335 s \$0-nbpattern;
#X obj 93 162 r \$0-nbpattern;
#X obj 292 347 s \$0-nbpattern;
#X obj 722 193 r \$0-nbpattern;
#X obj 193 102 t f;
#X obj 641 85 route \$2 _all_;
#X obj 596 51 inlet;
#X obj 459 580 outlet;
#X obj 206 220 s \$1-sndap;
#X obj 206 160 symbol \$2;
#X obj 206 140 t b f;
#X obj 206 180 pack s f;
#X obj 641 212 i;
#X obj 723 287 tabreadl \$0-pattern;
#X obj 799 84 sel 2;
#X obj 799 127 s \$0-nbpattern;
#X msg 799 106 0;
#X obj 51 240 route 0;
#X obj 332 149 route \$2;
#X obj 675 485 pack s f;
#X obj 675 443 t s b;
#X msg 675 507 \; \$1 \$2;
#X obj 675 419 symbol;
#X text 719 415 if parameter is "_get_val_ <s>";
#X obj 292 240 route _nbpattern_ _loaded_ float list _get_val_;
#X text 721 428 then return val to <s>.;
#X obj 705 463 f;
#X obj 641 137 route store load A B pos;
#X obj 881 285 tabread \$0-pattern;
#X obj 890 221 tabread \$0-pattern;
#X obj 848 311 *;
#X obj 875 243 *;
#X obj 848 335 +;
#X obj 848 265 * -1;
#X obj 848 286 + 1;
#X obj 848 218 t f f;
#X obj 459 501 spigot 1;
#X obj 504 481 == 0;
#X floatatom 765 221 5 0 0 0 - - -, f 5;
#X obj 459 534 t f;
#X obj 535 73 t f;
#X obj 535 50 r \$3-snd;
#X text 25 22 usage : apf Ref Name [BusName [pat_no_all [dont-recall]]]
;
#X text 70 38 -if pat_no_all==1 \, doesn't receive "_all_" pattern
commands store/load. If pat_no_all==2 \, no pattern for this.;
#X text 24 3 AutoPreset Float;
#X text 23 2 AutoPreset Float;
#X text 69 68 -if dont-recall=1 \, saved value is not sent when we
load the preset.;
#X obj 337 305 != 2;
#X obj 292 327 spigot 1;
#X obj 399 202 spigot 1;
#X obj 463 199 != 1;
#X obj 856 37 cnv 15 130 60 empty empty help: 20 7 0 12 -204800 -66577
0;
#N canvas 640 662 164 175 open 0;
#X obj 29 16 inlet;
#X obj 29 38 symbol;
#X obj 29 103 pack s s;
#X obj 56 80 getdir;
#X obj 29 59 t s b;
#X msg 29 124 \; pd open \$1 \$2;
#X connect 0 0 1 0;
#X connect 1 0 4 0;
#X connect 2 0 5 0;
#X connect 3 0 2 1;
#X connect 4 0 2 0;
#X connect 4 1 3 0;
#X restore 860 76 pd open;
#X msg 860 54 0autopreset-help.pd;
#X obj 399 116 route _nbpattern_;
#X obj 399 137 list prepend _nbpattern_;
#X obj 399 156 list trim;
#X obj 337 262 loadbang;
#X obj 337 284 f \$4;
#X obj 463 159 loadbang;
#X obj 463 179 f \$4;
#X obj 504 442 loadbang;
#X obj 504 462 f \$5;
#X obj 766 34 loadbang;
#X obj 766 55 f \$4;
#X obj 514 377 list;
#X obj 459 263 list split 2;
#X obj 459 285 unpack f f;
#X obj 514 419 s \$0-pattern;
#X obj 900 553 tabread \$0-pattern;
#X obj 846 461 t f f;
#X obj 873 486 i;
#X obj 873 508 t f f;
#X obj 900 531 + 1;
#X obj 846 534 -;
#X obj 873 573 tabread \$0-pattern;
#X obj 846 597 t f f;
#X obj 846 621 * -1;
#X obj 846 643 + 1;
#X obj 873 665 *;
#X obj 846 665 *;
#X obj 846 687 +;
#X obj 724 327 f;
#X obj 90 285 array get \$0-pattern;
#X msg 90 263 0 \$1;
#X obj 514 397 list prepend 0;
#X obj 30 313 list append;
#X obj 766 84 == 0;
#X obj 206 200 list trim;
#X obj 681 109 spigot 1;
#X connect 1 0 22 0;
#X connect 2 0 7 0;
#X connect 3 0 7 0;
#X connect 5 1 4 0;
#X connect 6 0 8 0;
#X connect 7 0 6 0;
#X connect 7 1 17 0;
#X connect 8 0 110 0;
#X connect 9 0 29 0;
#X connect 11 0 12 0;
#X connect 13 1 14 0;
#X connect 14 0 89 0;
#X connect 15 0 110 1;
#X connect 16 0 15 0;
#X connect 17 0 41 0;
#X connect 18 0 19 0;
#X connect 20 0 11 0;
#X connect 21 0 94 0;
#X connect 22 0 48 0;
#X connect 22 1 42 0;
#X connect 23 0 13 0;
#X connect 23 1 24 0;
#X connect 25 0 18 0;
#X connect 25 0 17 1;
#X connect 25 0 8 2;
#X connect 27 0 21 1;
#X connect 27 0 20 1;
#X connect 27 0 62 0;
#X connect 28 0 8 1;
#X connect 28 0 34 0;
#X connect 29 0 51 0;
#X connect 29 1 113 0;
#X connect 30 0 64 0;
#X connect 33 0 35 0;
#X connect 34 0 33 0;
#X connect 34 1 35 1;
#X connect 35 0 112 0;
#X connect 36 0 20 0;
#X connect 38 0 40 0;
#X connect 40 0 39 0;
#X connect 41 1 108 0;
#X connect 42 0 48 0;
#X connect 42 1 78 0;
#X connect 43 0 45 0;
#X connect 44 0 43 0;
#X connect 44 1 50 0;
#X connect 46 0 44 0;
#X connect 48 0 72 0;
#X connect 48 2 63 0;
#X connect 48 3 90 0;
#X connect 48 4 46 0;
#X connect 50 0 43 1;
#X connect 51 0 36 0;
#X connect 51 1 21 0;
#X connect 51 2 52 0;
#X connect 51 3 53 0;
#X connect 51 4 59 0;
#X connect 52 0 54 1;
#X connect 53 0 55 1;
#X connect 54 0 56 0;
#X connect 55 0 56 1;
#X connect 56 0 63 0;
#X connect 57 0 58 0;
#X connect 58 0 54 0;
#X connect 59 0 57 0;
#X connect 59 1 55 0;
#X connect 60 0 63 0;
#X connect 61 0 60 1;
#X connect 63 0 31 0;
#X connect 63 0 0 0;
#X connect 64 0 28 0;
#X connect 64 0 11 1;
#X connect 64 0 50 1;
#X connect 65 0 64 0;
#X connect 71 0 72 1;
#X connect 72 0 26 0;
#X connect 73 0 48 0;
#X connect 74 0 73 1;
#X connect 77 0 76 0;
#X connect 78 0 79 0;
#X connect 78 1 48 0;
#X connect 79 0 80 0;
#X connect 80 0 73 0;
#X connect 81 0 82 0;
#X connect 82 0 71 0;
#X connect 83 0 84 0;
#X connect 84 0 74 0;
#X connect 85 0 86 0;
#X connect 86 0 61 0;
#X connect 87 0 88 0;
#X connect 88 0 38 0;
#X connect 88 0 111 0;
#X connect 89 0 109 0;
#X connect 90 0 91 0;
#X connect 90 1 89 1;
#X connect 91 0 60 0;
#X connect 91 1 23 0;
#X connect 93 0 103 1;
#X connect 94 0 98 0;
#X connect 94 1 95 0;
#X connect 95 0 96 0;
#X connect 96 0 98 1;
#X connect 96 0 99 0;
#X connect 96 1 97 0;
#X connect 97 0 93 0;
#X connect 98 0 100 0;
#X connect 99 0 104 1;
#X connect 100 0 101 0;
#X connect 100 1 103 0;
#X connect 101 0 102 0;
#X connect 102 0 104 0;
#X connect 103 0 105 1;
#X connect 104 0 105 0;
#X connect 105 0 106 0;
#X connect 106 0 63 0;
#X connect 107 0 110 1;
#X connect 108 0 107 0;
#X connect 109 0 92 0;
#X connect 110 0 5 0;
#X connect 111 0 113 1;
#X connect 112 0 32 0;
#X connect 113 0 51 0;
