#N canvas 896 504 526 367 10;
#X obj 139 146 drip;
#X obj 135 226 l;
#X obj 135 248 glue;
#X msg 223 195 list;
#X obj 135 195 t b a;
#X msg 185 195 list;
#X obj 63 173 route float;
#X obj 120 119 t b a b b;
#X obj 119 271 l;
#X obj 291 296 r \$0-rcv;
#X text 13 8 arg: \$0(master) liste...;
#X obj 90 37 loadbang;
#X obj 154 37 inlet;
#X obj 291 336 outlet;
#X obj 119 316 route list;
#X obj 37 37 inlet;
#X obj 37 60 b;
#X obj 90 57 t b b;
#X obj 119 295 glue _get_dol0_ \$0-rcv;
#X obj 119 337 s \$1-setap-snd;
#X obj 120 86 l \$2 \$3 \$4 \$5 \$6 \$7 \$8 \$9 \$10 \$11 \$12 \$13
\$14 \$15 \$16 \$17 \$18 \$19 \$20;
#X symbolatom 342 317 10 0 0 0 - - -;
#X obj 291 316 symbol;
#X connect 0 0 6 0;
#X connect 1 0 2 0;
#X connect 2 0 1 1;
#X connect 2 0 8 1;
#X connect 3 0 2 1;
#X connect 4 0 1 0;
#X connect 4 1 2 1;
#X connect 5 0 1 0;
#X connect 6 1 4 0;
#X connect 7 1 0 0;
#X connect 7 2 5 0;
#X connect 7 3 3 0;
#X connect 8 0 18 0;
#X connect 9 0 22 0;
#X connect 11 0 17 0;
#X connect 12 0 20 0;
#X connect 14 0 19 0;
#X connect 15 0 16 0;
#X connect 16 0 8 0;
#X connect 17 0 16 0;
#X connect 17 1 20 0;
#X connect 18 0 14 0;
#X connect 20 0 7 0;
#X connect 22 0 21 0;
#X connect 22 0 13 0;
