#N canvas 535 68 577 594 10;
#X obj 350 449 s \$1-getap-snd;
#X obj 449 460 r \$1-getap-rcv;
#X obj 404 234 s \$1-setap-snd;
#X msg 120 524 read \$1;
#X obj 45 491 until;
#X obj 45 450 t b b;
#X msg 72 523 rewind;
#X obj 45 418 t b s;
#X obj 404 145 textfile;
#X msg 413 119 print;
#X obj 404 94 r \$0-text_rcv;
#X obj 45 566 s \$0-text_rcv;
#X obj 476 189 s \$0-text_eof;
#X msg 333 493 write \$1;
#X obj 333 474 symbol;
#X msg 403 495 clear;
#N canvas 318 175 450 300 glue 0;
#X obj 101 192 glue;
#X obj 174 165 a2l;
#X obj 101 139 t b a;
#X obj 101 212 route list;
#X obj 101 112 inlet;
#X msg 101 165 list add;
#X obj 101 236 outlet;
#X connect 0 0 3 0;
#X connect 1 0 0 1;
#X connect 2 0 5 0;
#X connect 2 1 1 0;
#X connect 3 0 6 0;
#X connect 4 0 2 0;
#X connect 5 0 0 0;
#X restore 449 530 pd glue add;
#X obj 316 426 t b b b s;
#X obj 333 566 s \$0-text_rcv;
#X obj 449 509 spigot;
#X msg 457 488 0;
#X msg 486 488 1;
#X obj 102 211 r \$1-apmaster-rcv;
#X msg 181 426 loaded \$1;
#X msg 246 427 saved \$1;
#X obj 181 455 s \$1-apmaster-snd;
#X obj 148 260 symbol;
#X obj 241 261 symbol;
#X obj 449 167 t b b;
#X msg 449 211 _all_ _loaded_;
#X obj 91 470 r \$0-text_eof;
#X msg 45 471 50000;
#X obj 102 232 route load loadfile save savefile loadin savein;
#X obj 129 330 symbol;
#X obj 129 308 b;
#X text 214 181 been loaded/saved.;
#X text 83 71 load: choose a file to read.;
#X text 83 84 loadfile my_file: open the designated file.;
#X text 83 96 loadin: reload actual file.;
#X text 83 123 savefile my_file: write the designated file.;
#X text 83 135 savein: save the actual file.;
#X obj 18 366 t s s;
#X obj 289 398 t s s;
#X obj 18 332 openpanel;
#X obj 18 310 split_path;
#X obj 18 288 symbol;
#X obj 51 265 r \$0-lastfile;
#X obj 162 307 r \$0-lastfile;
#X obj 180 493 r \$1-apmaster-snd;
#X obj 180 514 route loaded saved;
#X obj 180 535 symbol;
#X obj 180 556 s \$0-lastfile;
#X obj 289 349 split_path;
#X obj 289 327 symbol;
#X obj 333 326 r \$0-lastfile;
#X obj 289 371 savepanel;
#X obj 18 265 b;
#X obj 289 306 b;
#X obj 421 339 symbol;
#X obj 421 317 b;
#X obj 454 316 r \$0-lastfile;
#X obj 289 260 inlet save;
#X obj 18 208 inlet load;
#X text 14 27 Use "apmaster Ref" to save/load all presets;
#X text 18 154 You can listen to Ref-apmaster-snd:;
#X text 82 168 loaded/saved my_file: signals that my_file has;
#X text 17 3 AutoPreset Master;
#X text 18 4 AutoPreset Master;
#X text 23 40 of "Ref" and its children to/from a single text file.
;
#X obj 390 18 cnv 15 130 60 empty empty help: 20 7 0 12 -204800 -66577
0;
#N canvas 634 338 164 175 open 0;
#X obj 29 16 inlet;
#X obj 29 38 symbol;
#X obj 29 103 pack s s;
#X obj 56 80 getdir;
#X obj 29 59 t s b;
#X msg 29 124 \; pd open \$1 \$2;
#X connect 0 0 1 0;
#X connect 1 0 4 0;
#X connect 2 0 5 0;
#X connect 3 0 2 1;
#X connect 4 0 2 0;
#X connect 4 1 3 0;
#X restore 394 58 pd open;
#X msg 394 35 0autopreset_help.pd;
#X text 14 58 You can talk to Ref-apmaster-rcv:;
#X text 83 111 save: choose a file to write to (like "save as").;
#X connect 1 0 19 0;
#X connect 3 0 11 0;
#X connect 4 0 11 0;
#X connect 5 0 31 0;
#X connect 5 1 6 0;
#X connect 6 0 11 0;
#X connect 7 0 5 0;
#X connect 7 1 3 0;
#X connect 8 0 2 0;
#X connect 8 1 28 0;
#X connect 9 0 8 0;
#X connect 10 0 8 0;
#X connect 13 0 18 0;
#X connect 14 0 13 0;
#X connect 15 0 18 0;
#X connect 16 0 18 0;
#X connect 17 0 20 0;
#X connect 17 1 14 0;
#X connect 17 2 0 0;
#X connect 17 3 14 1;
#X connect 17 3 15 0;
#X connect 17 3 21 0;
#X connect 19 0 16 0;
#X connect 20 0 19 1;
#X connect 21 0 19 1;
#X connect 22 0 32 0;
#X connect 23 0 25 0;
#X connect 24 0 25 0;
#X connect 26 0 41 0;
#X connect 27 0 42 0;
#X connect 28 0 29 0;
#X connect 28 1 12 0;
#X connect 29 0 2 0;
#X connect 30 0 4 1;
#X connect 31 0 4 0;
#X connect 32 0 56 0;
#X connect 32 1 26 0;
#X connect 32 2 57 0;
#X connect 32 3 27 0;
#X connect 32 4 34 0;
#X connect 32 5 59 0;
#X connect 33 0 41 0;
#X connect 34 0 33 0;
#X connect 41 0 23 0;
#X connect 41 1 7 0;
#X connect 42 0 24 0;
#X connect 42 1 17 0;
#X connect 43 0 41 0;
#X connect 44 0 43 0;
#X connect 45 0 44 0;
#X connect 46 0 45 1;
#X connect 47 0 33 1;
#X connect 48 0 49 0;
#X connect 49 0 50 0;
#X connect 49 1 50 0;
#X connect 50 0 51 0;
#X connect 52 0 55 0;
#X connect 53 0 52 0;
#X connect 54 0 53 1;
#X connect 55 0 42 0;
#X connect 56 0 45 0;
#X connect 57 0 53 0;
#X connect 58 0 42 0;
#X connect 59 0 58 0;
#X connect 60 0 58 1;
#X connect 61 0 57 0;
#X connect 62 0 56 0;
#X connect 71 0 70 0;
