#N canvas 73 163 880 632 10;
#X obj 290 106 r \$1-setap-snd;
#X obj 34 106 r \$1-getap-snd;
#X obj 13 104 bng 15 250 50 0 empty empty empty 0 -6 0 8 -262144 -1
-1;
#X obj 64 483 s \$1-getap-rcv;
#X obj 34 462 t b a;
#X obj 34 504 s \$1-getap-next;
#X obj 34 265 glue;
#X obj 118 138 r \$3-len-snd;
#X obj 34 148 symbol \$2;
#X obj 34 168 pack s f;
#X obj 345 260 unwonk f;
#X obj 442 252 s \$3-len-rcv;
#X obj 601 115 r \$1-pattern-snd;
#X obj 613 209 route store load;
#X obj 598 255 moses 16;
#X obj 666 249 moses 16;
#X obj 717 227 r \$0-nbpattern;
#X obj 290 127 route \$2 _all_;
#X obj 470 399 l;
#X obj 440 359 sel 0;
#X obj 470 379 b;
#X obj 440 336 t f f;
#X obj 505 414 s \$0-nbpattern;
#X obj 404 228 t a f;
#X obj 390 283 niagara;
#X obj 440 312 unwonk f;
#X obj 777 248 r \$3-len-snd;
#X obj 750 269 *;
#X obj 646 275 r \$3-len-snd;
#X obj 598 297 *;
#X obj 598 374 glue;
#X obj 598 277 t f b;
#X obj 147 219 r \$0-nbpattern;
#X obj 34 437 glue;
#X obj 65 413 glue;
#X obj 81 330 r \$0-nbpattern;
#X obj 96 351 f;
#X obj 34 126 t b b;
#X obj 65 307 t b b;
#X obj 65 351 16;
#X obj 601 141 route \$2 _all_;
#X obj 57 244 sarray \$3;
#X msg 57 223 dump _;
#X msg 136 282 setlen \$1;
#X obj 136 302 sarray \$0-pattern;
#X msg 96 371 dump _;
#X obj 96 392 sarray \$0-pattern;
#X obj 469 227 s \$3-len-snd;
#X obj 470 532 sarray \$0-pattern;
#X msg 411 488 print;
#X obj 340 442 sarray \$3;
#X obj 340 395 glue;
#X msg 340 371 list set _ 0;
#X obj 340 328 t b a;
#X obj 370 349 a2l;
#X obj 750 587 sarray \$3;
#X obj 470 484 glue;
#X msg 470 462 list set _ 0;
#X obj 470 419 t b a;
#X obj 500 440 a2l;
#X obj 485 337 a2l;
#X msg 628 302 dump _;
#X msg 598 349 list set _ \$1;
#X obj 750 353 until;
#X obj 750 376 i;
#X obj 783 376 + 1;
#X msg 750 451 get \$1;
#X obj 750 473 sarray \$0-pattern;
#X obj 750 496 route bang;
#X obj 750 398 t f f;
#X obj 750 543 pack s f;
#X msg 750 516 symbol _;
#X obj 598 418 sarray \$0-pattern;
#X obj 628 322 sarray \$3;
#X obj 598 396 route list;
#X msg 750 565 set _ \$2 \$1;
#X obj 750 290 t b f;
#X obj 750 332 f;
#X msg 794 353 0;
#X obj 750 421 +;
#X obj 470 508 route list;
#X obj 340 418 route list;
#X obj 290 206 route _nbpattern_ _loaded_;
#X obj 598 229 i;
#X obj 666 229 i;
#X obj 600 44 init \$4;
#X obj 600 64 sel 0;
#X obj 600 86 s \$3-len-snd;
#X obj 647 167 demux;
#X obj 719 138 > 0;
#X obj 748 140 sel 2;
#X obj 748 178 s \$0-nbpattern;
#X msg 748 159 0;
#X obj 719 118 init \$5;
#X obj 135 260 * 16;
#X obj 145 239 t b f;
#X obj 520 349 init \$5;
#X obj 505 392 *;
#X obj 520 370 != 2;
#X text 120 38 -if pat_no_all==1 \, doesn't receive "_all_" pattern
commands store/load. If pat_no_all==2 \, no pattern for this.;
#X text 79 81 Please signal array length change to \$3-len-snd.;
#X text 26 16 usage : apsarray Ref Name SArrayName [SArrayLength [pat_no_all]]
;
#X text 25 1 AutoPreset Sarray;
#X text 26 2 AutoPreset Sarray;
#X text 141 2 (for [moonlib/sarray]);
#X text 78 67 Sarray is not included.;
#X obj 244 352 s \$0-nbpattern;
#X obj 413 181 spigot 1;
#X obj 477 157 != 1;
#X obj 477 137 init \$5;
#X obj 289 308 != 2;
#X obj 244 330 spigot 1;
#X obj 289 287 init \$5;
#X obj 330 149 route \$2;
#X obj 711 32 cnv 15 130 60 empty empty help: 20 7 0 12 -204800 -66577
0;
#N canvas 634 338 164 175 open 0;
#X obj 29 16 inlet;
#X obj 29 38 symbol;
#X obj 29 103 pack s s;
#X obj 56 80 getdir;
#X obj 29 59 t s b;
#X msg 29 124 \; pd open \$1 \$2;
#X connect 0 0 1 0;
#X connect 1 0 4 0;
#X connect 2 0 5 0;
#X connect 3 0 2 1;
#X connect 4 0 2 0;
#X connect 4 1 3 0;
#X restore 715 72 pd open;
#X msg 715 49 0autopreset_help.pd;
#X obj 413 95 route _nbpattern_;
#X obj 413 115 list prepend _nbpattern_;
#X obj 413 134 list trim;
#X connect 0 0 17 0;
#X connect 1 0 37 0;
#X connect 2 0 37 0;
#X connect 4 0 5 0;
#X connect 4 1 3 0;
#X connect 6 0 33 0;
#X connect 7 0 9 1;
#X connect 7 0 94 0;
#X connect 8 0 9 0;
#X connect 9 0 6 0;
#X connect 10 1 24 0;
#X connect 12 0 40 0;
#X connect 13 0 83 0;
#X connect 13 1 84 0;
#X connect 14 0 31 0;
#X connect 15 0 27 0;
#X connect 16 0 15 1;
#X connect 16 0 14 1;
#X connect 17 0 82 0;
#X connect 17 1 113 0;
#X connect 18 0 58 0;
#X connect 19 1 20 0;
#X connect 20 0 18 0;
#X connect 21 0 19 0;
#X connect 21 1 97 0;
#X connect 23 0 10 0;
#X connect 23 1 11 0;
#X connect 23 1 24 1;
#X connect 23 1 47 0;
#X connect 24 0 53 0;
#X connect 24 1 25 0;
#X connect 25 0 21 0;
#X connect 25 1 60 0;
#X connect 26 0 77 1;
#X connect 26 0 27 1;
#X connect 27 0 76 0;
#X connect 28 0 29 1;
#X connect 29 0 62 0;
#X connect 30 0 74 0;
#X connect 31 0 29 0;
#X connect 31 1 61 0;
#X connect 32 0 95 0;
#X connect 33 0 4 0;
#X connect 34 0 33 1;
#X connect 35 0 39 1;
#X connect 36 0 45 0;
#X connect 37 0 8 0;
#X connect 37 1 38 0;
#X connect 37 1 42 0;
#X connect 38 0 39 0;
#X connect 38 1 36 0;
#X connect 39 0 34 0;
#X connect 40 0 13 0;
#X connect 40 1 88 0;
#X connect 41 0 6 1;
#X connect 42 0 41 0;
#X connect 43 0 44 0;
#X connect 45 0 46 0;
#X connect 46 0 34 1;
#X connect 49 0 48 0;
#X connect 51 0 81 0;
#X connect 52 0 51 0;
#X connect 53 0 52 0;
#X connect 53 1 54 0;
#X connect 54 0 51 1;
#X connect 56 0 80 0;
#X connect 57 0 56 0;
#X connect 58 0 57 0;
#X connect 58 1 59 0;
#X connect 59 0 56 1;
#X connect 60 0 18 1;
#X connect 61 0 73 0;
#X connect 62 0 30 0;
#X connect 63 0 64 0;
#X connect 64 0 65 0;
#X connect 64 0 69 0;
#X connect 65 0 64 1;
#X connect 66 0 67 0;
#X connect 67 0 68 0;
#X connect 68 0 71 0;
#X connect 68 1 70 0;
#X connect 69 0 79 0;
#X connect 69 1 70 1;
#X connect 70 0 75 0;
#X connect 71 0 70 0;
#X connect 73 0 30 1;
#X connect 74 0 72 0;
#X connect 75 0 55 0;
#X connect 76 0 77 0;
#X connect 76 1 79 1;
#X connect 76 1 78 0;
#X connect 77 0 63 0;
#X connect 78 0 64 1;
#X connect 79 0 66 0;
#X connect 80 0 48 0;
#X connect 81 0 50 0;
#X connect 82 0 111 0;
#X connect 82 2 23 0;
#X connect 83 0 14 0;
#X connect 84 0 15 0;
#X connect 85 0 86 0;
#X connect 86 1 87 0;
#X connect 88 0 13 0;
#X connect 89 0 88 1;
#X connect 90 0 92 0;
#X connect 92 0 91 0;
#X connect 93 0 89 0;
#X connect 93 0 90 0;
#X connect 94 0 43 0;
#X connect 94 0 36 1;
#X connect 95 0 94 0;
#X connect 95 1 94 1;
#X connect 96 0 98 0;
#X connect 97 0 22 0;
#X connect 98 0 97 1;
#X connect 107 0 82 0;
#X connect 108 0 107 1;
#X connect 109 0 108 0;
#X connect 110 0 111 1;
#X connect 111 0 106 0;
#X connect 112 0 110 0;
#X connect 113 0 82 0;
#X connect 113 1 117 0;
#X connect 116 0 115 0;
#X connect 117 0 118 0;
#X connect 117 1 82 0;
#X connect 118 0 119 0;
#X connect 119 0 107 0;
