#N canvas 477 126 727 640 10;
#X obj 44 114 s \$1-getap-snd;
#X obj 44 189 r \$1-getap-rcv;
#X obj 44 276 s \$2-getap-rcv;
#X obj 44 90 r \$2-getap-snd;
#X obj 267 90 r \$2-setap-snd;
#X obj 312 247 s \$1-setap-snd;
#X obj 44 231 symbol \$3;
#X obj 44 210 t b a;
#X obj 37 376 r \$2-pattern-snd;
#X obj 37 610 s \$1-pattern-snd;
#X obj 267 112 route \$3;
#X obj 37 397 route \$3;
#X obj 234 159 r \$1-sndap;
#X obj 234 314 s \$2-sndap;
#X obj 234 250 symbol \$3;
#X obj 234 206 t b a;
#X obj 234 183 spigot;
#X text 305 270 upload continuous info to parent(on/off);
#X text 27 21 usage:;
#X text 32 62 transmit save command (getap);
#X text 32 73 from parent to child:;
#X text 32 150 transmit resulting data;
#X text 32 161 from child to parent \,;
#X text 33 172 prepending childname:;
#X text 260 50 transmit parameter modification;
#X text 260 62 from parent to child \, if parameter;
#X text 347 108 if parameter is "upload";
#X text 348 118 then switch uploading on/off;
#X text 260 73 begins by childname or _all_;
#X text 384 186 let the _all_ in place;
#X text 31 337 transmit pattern command from;
#X text 30 348 parent to child \, if it begins by;
#X text 31 360 childname or _all_ (let the _all_ in place);
#X obj 332 163 tgl 15 0 empty empty empty 0 -6 0 8 -262144 -1 -1 0
1;
#X obj 327 494 tgl 15 0 empty empty empty 0 -6 0 8 -262144 -1 -1 0
1;
#X text 234 514 _pat_lock_ locks storing of patterns;
#X obj 295 492 != 1;
#X obj 295 470 r \$1-_pat_lock_-snd;
#X obj 553 235 t s b;
#X msg 553 299 \; \$1 \$2;
#X obj 552 216 symbol;
#X obj 553 277 pack s s;
#X obj 580 257 makesymbol \$1;
#X msg 83 470 _all_ store \$1;
#X obj 37 447 route load store;
#X msg 37 502 _all_ load \$1;
#X obj 37 420 route _all_;
#X obj 180 515 spigot 1;
#X obj 354 162 s \$0-pat_all_follow;
#X text 413 346 (or "_get_dol0_ <s>" for compatibility purpose...)
;
#X text 414 360 then return \$1 to <s>.;
#X obj 181 124 inlet upload;
#X obj 267 135 route _upload_ _pat_all_follow_ _get_ref_ _get_dol0_
;
#X text 414 333 if parameter is "_get_ref_ <s>";
#X text 69 21 apsubmaster childref parentref childname_in_parent;
#X text 26 3 AutoPreset SubMaster;
#X text 27 4 AutoPreset SubMaster;
#X text 159 4 : create a sub-reference;
#X obj 516 21 cnv 15 130 60 empty empty help: 20 7 0 12 -204800 -66577
0;
#N canvas 634 338 164 175 open 0;
#X obj 29 16 inlet;
#X obj 29 38 symbol;
#X obj 29 103 pack s s;
#X obj 56 80 getdir;
#X obj 29 59 t s b;
#X msg 29 124 \; pd open \$1 \$2;
#X connect 0 0 1 0;
#X connect 1 0 4 0;
#X connect 2 0 5 0;
#X connect 3 0 2 1;
#X connect 4 0 2 0;
#X connect 4 1 3 0;
#X restore 520 61 pd open;
#X msg 520 38 0autopreset-help.pd;
#X obj 312 226 list trim;
#X obj 312 206 list prepend _all_;
#X obj 312 186 route _all_;
#X obj 243 562 list trim;
#X obj 243 541 list prepend _all_;
#X obj 180 388 route _all_;
#X obj 180 431 route store;
#X obj 180 452 list prepend store;
#X obj 180 410 spigot 1;
#X obj 244 409 r \$0-pat_all_follow;
#X obj 180 471 list prepend _all_;
#X obj 180 492 list trim;
#X obj 264 226 list;
#X obj 234 272 list append;
#X obj 234 292 list trim;
#X obj 44 253 list append;
#X connect 1 0 7 0;
#X connect 3 0 0 0;
#X connect 4 0 10 0;
#X connect 6 0 76 0;
#X connect 7 0 6 0;
#X connect 7 1 76 1;
#X connect 8 0 11 0;
#X connect 10 0 52 0;
#X connect 10 1 63 0;
#X connect 11 0 46 0;
#X connect 11 1 66 0;
#X connect 12 0 16 0;
#X connect 14 0 74 0;
#X connect 15 0 14 0;
#X connect 15 1 73 0;
#X connect 16 0 15 0;
#X connect 36 0 47 1;
#X connect 37 0 36 0;
#X connect 37 0 34 0;
#X connect 38 0 41 0;
#X connect 38 1 42 0;
#X connect 40 0 38 0;
#X connect 41 0 39 0;
#X connect 42 0 41 1;
#X connect 43 0 47 0;
#X connect 44 0 45 0;
#X connect 44 1 43 0;
#X connect 44 2 9 0;
#X connect 45 0 9 0;
#X connect 46 0 44 0;
#X connect 46 1 44 0;
#X connect 47 0 9 0;
#X connect 51 0 16 1;
#X connect 52 0 16 1;
#X connect 52 1 33 0;
#X connect 52 1 48 0;
#X connect 52 2 40 0;
#X connect 52 3 40 0;
#X connect 52 4 5 0;
#X connect 60 0 59 0;
#X connect 61 0 5 0;
#X connect 62 0 61 0;
#X connect 63 0 62 0;
#X connect 64 0 9 0;
#X connect 65 0 64 0;
#X connect 66 0 69 0;
#X connect 67 0 68 0;
#X connect 67 1 65 0;
#X connect 68 0 71 0;
#X connect 69 0 67 0;
#X connect 70 0 69 1;
#X connect 71 0 72 0;
#X connect 72 0 47 0;
#X connect 73 0 74 1;
#X connect 74 0 75 0;
#X connect 75 0 13 0;
#X connect 76 0 2 0;
