#N canvas 105 82 876 587 10;
#X obj 279 104 r \$1-setap-snd;
#X obj 32 129 r \$1-getap-snd;
#X obj 11 130 bng 15 250 50 0 empty empty empty 0 -6 0 8 -262144 -1
-1;
#X obj 62 444 s \$1-getap-rcv;
#X obj 32 423 t b a;
#X obj 32 306 symbol \$2;
#X obj 32 402 glue;
#X obj 32 154 t b b;
#X obj 603 132 r \$1-pattern-snd;
#X obj 603 197 route store load;
#X obj 456 304 sel 0;
#X obj 603 244 moses 16;
#X obj 665 243 moses 16;
#X obj 279 124 route \$2 _all_;
#X obj 456 281 t f f;
#X obj 496 304 s \$0-nbpattern;
#X obj 139 289 r \$0-nbpattern;
#X obj 716 219 r \$0-nbpattern;
#X obj 603 155 route \$2 _all_;
#X obj 480 30 inlet;
#X obj 370 536 outlet;
#X obj 101 159 symbol;
#X obj 32 330 pack s s 16;
#X msg 139 315 setlen \$1;
#X obj 139 334 sarray \$0-pattern 16;
#X msg 55 361 dump _;
#X obj 55 382 sarray \$0-pattern;
#X obj 428 256 unwonk s f;
#X obj 486 348 glue;
#X obj 486 403 sarray \$0-pattern;
#X obj 653 370 symbol;
#X obj 608 393 pack f s;
#X msg 608 414 set \$1 \$2;
#X msg 665 270 get \$1;
#X obj 665 290 sarray \$0-pattern;
#X obj 608 437 sarray \$0-pattern;
#X obj 547 224 a2l;
#X msg 486 326 list set _ 0;
#X obj 486 371 route list;
#X msg 127 360 print;
#X obj 665 310 route bang;
#X obj 44 218 symbol;
#X obj 44 237 sel null;
#X obj 95 199 loadbang;
#X msg 95 218 symbol;
#X msg 44 259 symbol _;
#X obj 418 279 sel _;
#X obj 165 260 s \$1-sndap;
#X obj 165 221 pack s s;
#X obj 165 201 symbol \$2;
#X obj 165 181 t b s;
#X obj 603 224 i;
#X obj 665 222 i;
#X obj 648 174 demux;
#X obj 749 134 init \$4;
#X obj 749 154 > 0;
#X obj 780 158 sel 2;
#X obj 780 196 s \$0-nbpattern;
#X msg 780 177 0;
#X obj 165 240 route list;
#X text 69 46 -if pat_no_all==1 \, doesn't receive "_all_" pattern
commands store/load. If pat_no_all==2 \, no pattern for this.;
#X text 22 10 AutoPreset Symbol;
#X text 23 11 AutoPreset Symbol;
#X text 24 30 usage : apsym Ref Name [BusName [pat_no_all [dont-recall]]]
;
#X obj 519 31 r \$3-snd;
#X obj 416 538 s \$3-rcv;
#X obj 504 56 t a;
#X obj 393 506 t a;
#X obj 279 203 route _nbpattern_ _loaded_ symbol list _get_val_;
#X obj 230 388 t s b;
#X msg 230 452 \; \$1 \$2;
#X obj 230 364 symbol;
#X text 275 363 if parameter is "_get_val_ <s>";
#X text 276 376 then return val to <s>.;
#X obj 257 408 symbol;
#X obj 230 430 pack s s;
#X obj 445 472 spigot 1;
#X obj 490 430 init \$5;
#X obj 490 451 == 0;
#X text 68 76 -if dont-recall=1 \, saved value is not sent when we
load the preset.;
#X obj 279 296 s \$0-nbpattern;
#X obj 324 233 init \$4;
#X obj 324 254 != 2;
#X obj 279 276 spigot 1;
#X obj 319 148 route \$2;
#X obj 460 136 init \$4;
#X obj 399 176 spigot 1;
#X obj 460 156 != 1;
#X obj 628 45 cnv 15 130 60 empty empty help: 20 7 0 12 -204800 -66577
0;
#N canvas 634 338 164 175 open 0;
#X obj 29 16 inlet;
#X obj 29 38 symbol;
#X obj 29 103 pack s s;
#X obj 56 80 getdir;
#X obj 29 59 t s b;
#X msg 29 124 \; pd open \$1 \$2;
#X connect 0 0 1 0;
#X connect 1 0 4 0;
#X connect 2 0 5 0;
#X connect 3 0 2 1;
#X connect 4 0 2 0;
#X connect 4 1 3 0;
#X restore 632 85 pd open;
#X msg 632 62 0autopreset_help.pd;
#X obj 399 92 route _nbpattern_;
#X obj 399 114 list prepend _nbpattern_;
#X obj 399 133 list trim;
#X connect 0 0 13 0;
#X connect 1 0 7 0;
#X connect 2 0 7 0;
#X connect 4 1 3 0;
#X connect 5 0 22 0;
#X connect 6 0 4 0;
#X connect 7 0 5 0;
#X connect 7 1 25 0;
#X connect 7 1 41 0;
#X connect 8 0 18 0;
#X connect 9 0 51 0;
#X connect 9 1 52 0;
#X connect 10 1 37 0;
#X connect 11 0 31 0;
#X connect 12 0 33 0;
#X connect 13 0 68 0;
#X connect 13 1 84 0;
#X connect 14 0 10 0;
#X connect 14 1 15 0;
#X connect 16 0 23 0;
#X connect 16 0 22 2;
#X connect 17 0 12 1;
#X connect 17 0 11 1;
#X connect 18 0 9 0;
#X connect 18 1 53 0;
#X connect 19 0 66 0;
#X connect 21 0 41 1;
#X connect 21 0 50 0;
#X connect 21 0 74 1;
#X connect 22 0 6 0;
#X connect 23 0 24 0;
#X connect 25 0 26 0;
#X connect 26 0 6 1;
#X connect 27 0 46 0;
#X connect 27 1 14 0;
#X connect 27 2 28 1;
#X connect 28 0 38 0;
#X connect 30 0 31 1;
#X connect 31 0 32 0;
#X connect 32 0 35 0;
#X connect 33 0 34 0;
#X connect 34 0 40 0;
#X connect 36 0 27 0;
#X connect 37 0 28 0;
#X connect 38 0 29 0;
#X connect 39 0 26 0;
#X connect 40 1 67 0;
#X connect 41 0 42 0;
#X connect 42 0 45 0;
#X connect 42 1 22 1;
#X connect 43 0 44 0;
#X connect 44 0 42 1;
#X connect 45 0 22 1;
#X connect 46 1 76 0;
#X connect 48 0 59 0;
#X connect 49 0 48 0;
#X connect 50 0 49 0;
#X connect 50 1 48 1;
#X connect 51 0 11 0;
#X connect 52 0 12 0;
#X connect 53 0 9 0;
#X connect 54 0 55 0;
#X connect 54 0 56 0;
#X connect 55 0 53 1;
#X connect 56 0 58 0;
#X connect 58 0 57 0;
#X connect 59 0 47 0;
#X connect 64 0 66 0;
#X connect 66 0 30 0;
#X connect 66 0 21 0;
#X connect 67 0 65 0;
#X connect 67 0 20 0;
#X connect 68 0 83 0;
#X connect 68 2 67 0;
#X connect 68 3 27 0;
#X connect 68 4 71 0;
#X connect 68 5 36 0;
#X connect 69 0 75 0;
#X connect 69 1 74 0;
#X connect 71 0 69 0;
#X connect 74 0 75 1;
#X connect 75 0 70 0;
#X connect 76 0 67 0;
#X connect 77 0 78 0;
#X connect 78 0 76 1;
#X connect 81 0 82 0;
#X connect 82 0 83 1;
#X connect 83 0 80 0;
#X connect 84 0 68 0;
#X connect 84 1 91 0;
#X connect 85 0 87 0;
#X connect 86 0 68 0;
#X connect 87 0 86 1;
#X connect 90 0 89 0;
#X connect 91 0 92 0;
#X connect 91 1 68 0;
#X connect 92 0 93 0;
#X connect 93 0 86 0;
