#N canvas 263 244 878 519 10;
#X obj 286 97 r \$1-setap-snd;
#X obj 27 73 r \$1-getap-snd;
#X obj 6 71 bng 15 250 50 0 empty empty empty 0 -6 0 8 -262144 -1 -1
;
#X obj 58 463 s \$1-getap-rcv;
#X obj 28 442 t b a;
#X obj 28 484 s \$1-getap-next;
#X obj 27 232 glue;
#X obj 102 100 r \$3-len-snd;
#X obj 27 115 symbol \$2;
#X obj 27 135 pack s f;
#X obj 341 268 unwonk f;
#X msg 507 287 resize \$1;
#X obj 507 306 s \$3;
#X obj 386 383 tabset \$3;
#X obj 50 211 tabdump2 \$3;
#X obj 50 170 f;
#X msg 50 190 dump 0 \$1;
#X obj 438 260 s \$3-len-rcv;
#X obj 594 110 r \$1-pattern-snd;
#X obj 582 191 route store load;
#X obj 580 33 table \$0-pattern 16;
#X obj 582 387 s \$0-pattern;
#X obj 582 248 moses 16;
#X obj 650 247 moses 16;
#X obj 701 209 r \$0-nbpattern;
#X obj 286 118 route \$2 _all_;
#X obj 460 400 l;
#X obj 460 420 tabset \$0-pattern;
#X obj 430 360 sel 0;
#X obj 460 380 b;
#X obj 430 337 t f f;
#X obj 488 400 s \$0-nbpattern;
#X obj 400 236 t a f;
#X obj 386 291 niagara;
#X obj 430 316 unwonk f;
#X obj 749 248 r \$3-len-snd;
#X obj 733 272 *;
#X obj 784 309 +;
#X obj 733 292 t f f;
#X obj 733 373 tabdump2 \$0-pattern;
#X obj 733 330 pack f f;
#X obj 733 393 tabset \$3;
#X msg 733 354 dump \$1 \$2;
#X obj 612 336 tabdump2 \$3;
#X obj 628 271 r \$3-len-snd;
#X obj 582 295 *;
#X msg 612 315 dump 0 \$1;
#X obj 612 295 f;
#X obj 582 366 glue;
#X obj 582 270 t f b;
#X msg 157 234 resize \$1;
#X obj 157 253 s \$0-pattern;
#X obj 163 171 r \$0-nbpattern;
#X obj 28 422 glue;
#X obj 59 404 glue;
#X obj 74 297 r \$0-nbpattern;
#X msg 90 360 dump 0 \$1;
#X obj 89 318 f;
#X obj 90 383 tabdump2 \$0-pattern;
#X obj 27 93 t b b;
#X obj 58 274 t b b;
#X obj 58 318 16;
#X obj 594 134 route \$2 _all_;
#X obj 286 214 route _nbpattern_ _loaded_;
#X obj 524 33 init \$4;
#X obj 524 53 sel 0;
#X obj 551 74 s \$3-len-snd;
#X obj 582 228 i;
#X obj 650 226 i;
#X text 165 57 Table is not included \;;
#X obj 640 157 demux;
#X obj 716 138 > 0;
#X obj 760 141 sel 2;
#X obj 760 179 s \$0-nbpattern;
#X msg 760 160 0;
#X obj 716 118 init \$5;
#X obj 163 191 t b f;
#X obj 157 212 * 16;
#X obj 89 338 route 0;
#X obj 286 371 s \$0-nbpattern;
#X obj 503 334 init \$5;
#X obj 488 377 *;
#X obj 503 355 != 2;
#X text 120 29 -if pat_no_all==1 \, doesn't receive "_all_" pattern
commands store/load. If pat_no_all==2 \, no pattern for this.;
#X text 22 -1 AutoPreset Table;
#X text 23 0 AutoPreset Table;
#X text 166 71 Please signal table length change to \$3-len-snd.;
#X text 22 16 usage : aptab Ref Name TableName [TableLength [pat_no_all]]
;
#X obj 479 234 s \$3-len-snd;
#X obj 326 141 route \$2;
#X obj 400 179 spigot 1;
#X obj 462 176 != 1;
#X obj 462 156 init \$5;
#X obj 331 327 != 2;
#X obj 286 349 spigot 1;
#X obj 331 306 init \$5;
#X obj 710 32 cnv 15 130 60 empty empty help: 20 7 0 12 -204800 -66577
0;
#N canvas 634 338 164 175 open 0;
#X obj 29 16 inlet;
#X obj 29 38 symbol;
#X obj 29 103 pack s s;
#X obj 56 80 getdir;
#X obj 29 59 t s b;
#X msg 29 124 \; pd open \$1 \$2;
#X connect 0 0 1 0;
#X connect 1 0 4 0;
#X connect 2 0 5 0;
#X connect 3 0 2 1;
#X connect 4 0 2 0;
#X connect 4 1 3 0;
#X restore 714 72 pd open;
#X msg 714 49 0autopreset-help.pd;
#X obj 400 156 list trim;
#X obj 400 112 route _nbpattern_;
#X obj 400 134 list prepend _nbpattern_;
#X connect 0 0 25 0;
#X connect 1 0 59 0;
#X connect 2 0 59 0;
#X connect 4 0 5 0;
#X connect 4 1 3 0;
#X connect 6 0 53 0;
#X connect 7 0 9 1;
#X connect 7 0 15 1;
#X connect 7 0 77 0;
#X connect 8 0 9 0;
#X connect 9 0 6 0;
#X connect 10 1 33 0;
#X connect 11 0 12 0;
#X connect 14 0 6 1;
#X connect 15 0 16 0;
#X connect 16 0 14 0;
#X connect 18 0 62 0;
#X connect 19 0 67 0;
#X connect 19 1 68 0;
#X connect 22 0 49 0;
#X connect 23 0 36 0;
#X connect 24 0 23 1;
#X connect 24 0 22 1;
#X connect 25 0 63 0;
#X connect 25 1 89 0;
#X connect 26 0 27 0;
#X connect 28 1 29 0;
#X connect 29 0 26 0;
#X connect 30 0 28 0;
#X connect 30 1 81 0;
#X connect 32 0 10 0;
#X connect 32 1 17 0;
#X connect 32 1 33 1;
#X connect 32 1 88 0;
#X connect 33 0 13 0;
#X connect 33 1 34 0;
#X connect 34 0 30 0;
#X connect 34 1 26 1;
#X connect 35 0 36 1;
#X connect 35 0 37 1;
#X connect 36 0 38 0;
#X connect 37 0 40 1;
#X connect 38 0 40 0;
#X connect 38 1 37 0;
#X connect 39 0 41 0;
#X connect 40 0 42 0;
#X connect 42 0 39 0;
#X connect 43 0 48 1;
#X connect 44 0 45 1;
#X connect 44 0 47 1;
#X connect 45 0 48 0;
#X connect 46 0 43 0;
#X connect 47 0 46 0;
#X connect 48 0 21 0;
#X connect 49 0 45 0;
#X connect 49 1 47 0;
#X connect 50 0 51 0;
#X connect 52 0 76 0;
#X connect 53 0 4 0;
#X connect 54 0 53 1;
#X connect 55 0 61 1;
#X connect 56 0 58 0;
#X connect 57 0 78 0;
#X connect 58 0 54 1;
#X connect 59 0 8 0;
#X connect 59 1 15 0;
#X connect 59 1 60 0;
#X connect 60 0 61 0;
#X connect 60 1 57 0;
#X connect 61 0 54 0;
#X connect 62 0 19 0;
#X connect 62 1 70 0;
#X connect 63 0 94 0;
#X connect 63 2 32 0;
#X connect 64 0 65 0;
#X connect 65 1 66 0;
#X connect 67 0 22 0;
#X connect 68 0 23 0;
#X connect 70 0 19 0;
#X connect 71 0 70 1;
#X connect 72 0 74 0;
#X connect 74 0 73 0;
#X connect 75 0 71 0;
#X connect 75 0 72 0;
#X connect 76 0 77 0;
#X connect 76 1 77 1;
#X connect 77 0 50 0;
#X connect 77 0 57 1;
#X connect 78 1 56 0;
#X connect 80 0 82 0;
#X connect 81 0 31 0;
#X connect 82 0 81 1;
#X connect 89 0 63 0;
#X connect 89 1 100 0;
#X connect 90 0 63 0;
#X connect 91 0 90 1;
#X connect 92 0 91 0;
#X connect 93 0 94 1;
#X connect 94 0 79 0;
#X connect 95 0 93 0;
#X connect 98 0 97 0;
#X connect 99 0 90 0;
#X connect 100 0 101 0;
#X connect 100 1 63 0;
#X connect 101 0 99 0;
