#N canvas 560 124 403 375 10;
#X text 30 9 presetfade p1 p2 p3... : fade [0:1] to [p1:p2] \, [p2
p3]...;
#X obj 34 41 inlet fade [0:1];
#X obj 115 90 dollarg;
#X obj 176 71 bng 15 250 50 0 empty empty empty 17 7 0 10 -262144 -1
-1;
#X obj 49 116 length;
#X floatatom 251 91 5 0 0 0 - - -;
#X obj 34 158 *;
#X obj 34 185 t f f;
#X obj 61 213 i;
#X obj 34 216 -;
#X obj 115 68 loadbang;
#X obj 144 265 + 1;
#X msg 61 312 A \$1;
#X msg 144 310 B \$1;
#X obj 34 342 outlet;
#X msg 34 263 pos \$1;
#X obj 61 238 change -1;
#X obj 200 170 table \$0-t;
#X obj 143 124 list prepend 0;
#X obj 143 146 s \$0-t;
#X obj 61 289 tabread \$0-t;
#X obj 144 289 tabread \$0-t;
#X obj 49 137 - 1;
#X obj 228 233 * 3.14159;
#X obj 200 205 hsl 128 15 0 1 0 0 empty empty empty -2 -8 0 10 -262144
-1 -1 0 1;
#X obj 228 256 cos;
#X floatatom 293 339 5 0 0 0 - - -;
#X obj 228 279 * -0.5;
#X floatatom 299 337 5 0 0 0 - - -;
#X obj 228 301 + 0.5;
#X obj 101 129 b;
#X obj 101 149 del 100;
#X msg 102 170 set -1;
#X connect 1 0 6 0;
#X connect 1 0 30 0;
#X connect 2 0 4 0;
#X connect 2 0 18 0;
#X connect 3 0 2 0;
#X connect 4 0 22 0;
#X connect 6 0 7 0;
#X connect 7 0 9 0;
#X connect 7 1 8 0;
#X connect 8 0 9 1;
#X connect 8 0 16 0;
#X connect 9 0 23 0;
#X connect 10 0 2 0;
#X connect 11 0 21 0;
#X connect 12 0 14 0;
#X connect 13 0 14 0;
#X connect 15 0 14 0;
#X connect 16 0 20 0;
#X connect 16 0 11 0;
#X connect 18 0 19 0;
#X connect 20 0 12 0;
#X connect 21 0 13 0;
#X connect 22 0 6 1;
#X connect 23 0 25 0;
#X connect 25 0 27 0;
#X connect 27 0 29 0;
#X connect 29 0 15 0;
#X connect 30 0 31 0;
#X connect 31 0 32 0;
#X connect 32 0 16 0;
